<?xml version="1.0" encoding="utf-8"?>
<!-- Generator: Adobe Illustrator 24.1.2, SVG Export Plug-In . SVG Version: 6.00 Build 0)  -->
<svg version="1.1" id="Layer_1" xmlns="http://www.w3.org/2000/svg" xmlns:xlink="http://www.w3.org/1999/xlink" x="0px" y="0px"
	 viewBox="0 0 400 400" style="enable-background:new 0 0 400 400;" xml:space="preserve">
<style type="text/css">
	.st0{fill:#45B649;}
</style>
<path class="st0" d="M390.1,199.9c0,104.7-84.9,189.6-189.6,189.6C95.9,389.4,11,304.5,11,199.9C11,95.2,95.9,10.3,200.6,10.3
	S390.1,95.2,390.1,199.9L390.1,199.9z"/>
<path d="M317.5,200c-1.1,64.6-52.4,115.9-117,117s-115.9-54-117-117c-0.2-9.6-15.1-9.7-15,0c1.2,72.7,59.2,130.7,131.9,131.9
	c72.7,1.2,130.8-61,131.9-131.9C332.7,190.3,317.7,190.3,317.5,200L317.5,200z"/>
<path d="M172.7,134.5c0,16.4-13.3,29.8-29.8,29.8c-16.4,0-29.8-13.3-29.8-29.8c0-16.4,13.3-29.8,29.8-29.8S172.7,118,172.7,134.5
	L172.7,134.5z"/>
<path d="M285.3,134.5c0,16.4-13.3,29.8-29.8,29.8c-16.4,0-29.8-13.3-29.8-29.8c0-16.4,13.3-29.8,29.8-29.8S285.3,118,285.3,134.5
	L285.3,134.5z"/>
</svg>
