<?xml version="1.0" encoding="utf-8"?>
<!-- Generator: Adobe Illustrator 24.1.2, SVG Export Plug-In . SVG Version: 6.00 Build 0)  -->
<svg version="1.1" id="Layer_1" xmlns="http://www.w3.org/2000/svg" xmlns:xlink="http://www.w3.org/1999/xlink" x="0px" y="0px"
	 viewBox="0 0 400 400" style="enable-background:new 0 0 400 400;" xml:space="preserve">
<style type="text/css">
	.st0{fill:#D7350A;}
</style>
<path class="st0" d="M390.1,199.9c0,104.7-84.9,189.6-189.6,189.6S11,304.6,11,199.9S95.9,10.3,200.6,10.3S390.1,95.2,390.1,199.9
	L390.1,199.9z"/>
<path d="M296.3,293.6c-53-54.1-139.4-53.9-192.1,0.6c-6.7,6.9,3.9,17.5,10.6,10.6c47.1-48.7,123.5-49,170.9-0.6
	C292.5,311,303.1,300.5,296.3,293.6L296.3,293.6z"/>
<path d="M172.7,134.5c0,16.4-13.3,29.8-29.8,29.8c-16.4,0-29.8-13.3-29.8-29.8c0-16.4,13.3-29.8,29.8-29.8S172.7,118,172.7,134.5
	L172.7,134.5z"/>
<path d="M285.3,134.5c0,16.4-13.3,29.8-29.8,29.8c-16.4,0-29.8-13.3-29.8-29.8c0-16.4,13.3-29.8,29.8-29.8S285.3,118,285.3,134.5
	L285.3,134.5z"/>
</svg>
